<svg width="38" height="34" viewBox="0 0 38 34" fill="none" xmlns="http://www.w3.org/2000/svg">
<path fill-rule="evenodd" clip-rule="evenodd" d="M38 17C38 26.3888 29.4934 34 19 34C8.50659 34 0 26.3888 0 17C0 7.61116 8.50659 0 19 0C29.4934 0 38 7.61116 38 17ZM19.0001 28.9444C17.6194 28.9444 16.5001 27.8251 16.5001 26.4444V19.5H8.44446C7.06375 19.5 5.94446 18.3807 5.94446 17C5.94446 15.6193 7.06375 14.5 8.44446 14.5H16.5001V7.55553C16.5001 6.17482 17.6194 5.05553 19.0001 5.05553C20.3808 5.05553 21.5001 6.17482 21.5001 7.55553V14.5H29.5556C30.9363 14.5 32.0556 15.6193 32.0556 17C32.0556 18.3807 30.9363 19.5 29.5556 19.5H21.5001V26.4444C21.5001 27.8251 20.3808 28.9444 19.0001 28.9444Z" fill="#FBFAF2"/>
</svg>
